<?xml version="1.0" encoding="utf-8"?>
<!-- Generator: Adobe Illustrator 18.0.0, SVG Export Plug-In . SVG Version: 6.00 Build 0)  -->
<!DOCTYPE svg PUBLIC "-//W3C//DTD SVG 1.1//EN" "http://www.w3.org/Graphics/SVG/1.1/DTD/svg11.dtd">
<svg version="1.1" id="Layer_1" xmlns="http://www.w3.org/2000/svg" xmlns:xlink="http://www.w3.org/1999/xlink" weight="415" height="150"
	 viewBox="0 0 415.9 146.7" enable-background="new 0 0 415.9 146.7" xml:space="preserve">
<g>
	<path fill="#1A1446" d="M108.6,78.2c0,2.3,1,3,4.4,3c3.4,0,5-1,7.2-5.6h0.8l-0.8,7.2H99V82c3.2-0.8,3.5-1.5,3.5-4.5V59.7
		c0-2.5-0.6-3.2-3.5-3.9V55h13.1v0.8c-2.8,0.7-3.5,1.3-3.5,3.7V78.2z"/>
	<path fill="#1A1446" d="M129.9,78.9c0,1.8,0.9,2.8,2.9,3v0.8h-11.3V82c2.4-0.5,3-1.1,3-3.4V69c0-2.2-0.6-2.8-3.2-3.3v-0.8l7.8-0.7
		h0.8V78.9z M127.2,53.1c1.7,0,3.1,1.4,3.1,3.1c0,1.7-1.4,3.1-3.1,3.1c-1.7,0-3.1-1.4-3.1-3.1C124.1,54.5,125.5,53.1,127.2,53.1"/>
	<path fill="#1A1446" d="M141.6,68.7c1.8-1.7,2.8-2.1,4.2-2.1c3.2,0,5.3,3,5.3,7.4c0,5.8-2.7,8.2-6.6,8.2c-2.1,0-2.8-0.9-2.8-3V68.7
		z M141.6,53.1h-0.8l-7.3,0.5v0.8c1.7,0.3,2.7,1.1,2.7,2.7v25.7c2.7,0.5,5.4,0.7,8.7,0.7c8.7,0,12.1-4.6,12.1-10.1
		c0-5.2-3.7-9.3-8.5-9.3c-2.6,0-4.7,1-6.9,3.3V53.1z"/>
	<path fill="#1A1446" d="M164.9,71.2c0.1-3.4,1.6-5.7,3.8-5.7c2.2,0,3.8,2.4,4,5.7H164.9z M178.5,72.3c-0.7-4.9-4.3-8.1-9.4-8.1
		c-5.6,0-10,4.2-10,9.8c0,5.5,4.2,9.5,9.8,9.5c4.3,0,8-2.4,9.6-6.2h-0.8c-1.7,2.6-3.8,3.9-6.4,3.9c-3.3,0-6.6-3-6.4-8.9H178.5z"/>
	<path fill="#1A1446" d="M195.6,71.1c-1.6-1.5-2.8-2.3-4-2.3c-1.6,0-2.6,0.7-4,2.6v7.3c0,2.1,0.4,2.8,3,3.3v0.8h-11.4V82
		c2.4-0.6,3-1.3,3-3.3v-9.4c0-2.3-1-3.3-3.3-3.5v-0.8l7.8-0.7h0.8v5.7h0.1c1.8-3.9,3.7-5.7,5.9-5.7c1.2,0,2.3,0.5,3.2,1.5
		L195.6,71.1z"/>
	<path fill="#1A1446" d="M225.9,64.9v0.8c2.3,0.5,2.8,1.9,1.2,5.7l-2.5,5.7l-3.8-7.8c-1.1-2.3-1.1-3.3,0.9-3.6v-0.8h-10.4h-0.3h-5.2
		V58H205c-2.5,3.2-5.5,6.1-7.7,7.5v0.9h3.2v11.5c0,4.1,2.7,5.7,6.1,5.7c2.7,0,4.4-0.9,5.7-3.2l-0.6-0.5c-0.9,1-1.7,1.4-2.6,1.4
		c-2.5,0-3.3-1.7-3.3-4.6V66.3h4.8c2.6,0,3.4,0.9,4.5,3.4l6.5,13.8c-2.2,5.9-4.1,8.3-7.4,8.3c-0.7,0-1.3,0-2.4-0.4l-1.1,5.4
		c0.7,0.1,1,0.1,1.5,0.1c3.7,0,5.7-1.6,7.6-5.9l9-20.6c1.5-3.3,2-4,4.3-4.6v-0.8H225.9z"/>
	<path fill="#1A1446" d="M277.7,77.8c0.3,2.4,1.5,3.8,4.2,4.3v0.8h-13.7v-0.8c3-0.8,3.6-2.5,3-6.1l-2.3-15.9h-0.1l-9,22.8h-1
		l-8.9-22.8h-0.1l-2.4,16.3c-0.5,3.2,0.1,5.4,3.3,5.6v0.8h-10.1v-0.8c3-0.1,4.3-1.8,4.9-6.1l2.8-18.1c-1.1-1.1-2.6-1.9-4-1.9v-0.8
		h10l7.3,18.3l7.4-18.3h9.4V56c-2.8,0.5-3.5,2-3.1,4.5L277.7,77.8z"/>
	<path fill="#1A1446" d="M284.1,69c0-2-0.7-2.7-2.8-3.1v-0.8l7.4-0.7h0.8v13.2c0,2.1,1.4,3.1,3.3,3.1c1.8,0,2.9-0.8,4.5-3.2v-8.9
		c0-1.5-1-2.3-2.8-2.7v-0.8l7.4-0.7h0.8v14.2c0,2.4,0.5,2.9,2.9,3.6v0.8l-8.2,0.7v-4.4h-0.1c-2,3-4.2,4.4-7.1,4.4
		c-3.7,0-5.9-2-5.9-5.5V69z"/>
	<path fill="#1A1446" d="M309.6,66.5h-3.2v-0.9c2.2-1.4,5.2-4.2,7.7-7.5h0.9v6.9h5.9v1.4h-5.9v10.3c0,2.9,0.8,4.6,3.3,4.6
		c0.9,0,1.8-0.4,2.6-1.4l0.6,0.5c-1.3,2.2-3.1,3.2-5.7,3.2c-3.4,0-6.1-1.6-6.1-5.7V66.5z"/>
	<path fill="#1A1446" d="M324.3,69c0-2-0.7-2.7-2.8-3.1v-0.8l7.4-0.7h0.8v13.2c0,2.1,1.4,3.1,3.3,3.1c1.8,0,2.9-0.8,4.5-3.2v-8.9
		c0-1.5-0.9-2.3-2.8-2.7v-0.8l7.4-0.7h0.8v14.2c0,2.4,0.5,2.9,2.8,3.6v0.8l-8.2,0.7v-4.4h-0.1c-2,3-4.2,4.4-7.1,4.4
		c-3.7,0-5.9-2-5.9-5.5V69z"/>
	<path fill="#1A1446" d="M357.9,79.9c-1.2,1.2-2.3,1.9-3.4,1.9c-1.5,0-2.5-1.3-2.5-3.2c0-2.4,1.4-3.5,5.8-5.4V79.9z M363.3,71
		c0-4.9-4-6.7-7.9-6.7c-4.2,0-7.1,2.2-8,6.1h0.7c1.1-2,2.9-3,5.4-3c3.2,0,4.5,1.5,4.5,4.7c-4.4,1.6-11.5,2-11.5,6.8
		c0,2.6,2.4,4.7,5.4,4.7c2.2,0,3.8-0.5,5.6-2.1l0.4-0.4c0.9,1.8,2.1,2.5,4.3,2.5c2.6,0,4.2-1.2,4.4-3.5h-0.8
		c-0.2,1.1-0.7,1.7-1.4,1.7c-0.8,0-1.1-0.7-1.1-2.4V71z"/>
	<path fill="#1A1446" d="M370.3,58.1c0-2.5-0.8-3.4-3.4-3.6v-0.8l7.9-0.5h0.8v25.4c0,2.4,0.5,2.9,3.2,3.6v0.8h-11.9v-0.8
		c2.6-0.4,3.4-1.3,3.4-3.6V58.1z"/>
	<path fill="#1A1446" d="M92.5,63.9c-0.2-0.3-0.7-0.1-0.7-0.1L83.5,67c-0.6-1.6-1.4-3.1-2.2-4.4l2.7-7.4c0,0,0.3-0.7,0-0.9
		c-0.3-0.2-0.8,0.3-0.8,0.3l-4.9,4c-1.9-2-4.2-3.7-6.7-4.9c-1-0.4-2-0.8-3-1.1l-1.5-5.8c0,0-0.1-0.6-0.5-0.6c-0.4,0-0.5,0.6-0.5,0.6
		l-1,5.2c-1.1-0.1-2.2-0.2-3.3-0.2c-3.7,0-6.9,0.7-9.8,2c-1.2,0.5-2.4,1.2-3.4,2c-0.2,0.1-0.3,0.3-0.5,0.4c-1-2.6-1.8-4.7-2-5.4
		c0.6-0.5,1.7-2.4,2-3.6c0.4-1.8,0.3-2.6-0.1-3.9c-0.3-1-0.9-1.9-0.9-2.5c0-0.5,0.3-0.8,0.5-1c-0.1-0.6-0.5-0.9-1-1
		c-0.5-0.1-0.8,0.1-1.2,0.1c-0.1-0.2-0.3-0.2-0.2-0.8c0.2-1,2.2-1.5,3.7-2.1c2-0.8,3.1-2.2,3.2-4.5c0-1.7-0.9-2.9-2.1-3.5
		c-0.2,0.7-1.2,1.6-1.9,2c-0.7,0.4-1.6,0.5-2.3,0.4c0.1-1.2-0.4-2.3-1.3-2.7c-0.3,0.5-1.4,1.3-3,1.2c-1.6,0-1.7-0.4-4-0.4
		c-3.3,0-6,2-6.3,4.9c-0.2,1.9,0.5,3.5,1.1,4.3c-0.4,0.3-1.4,1.2-1.5,1.5c-0.2-0.3-0.9-0.6-1.7-0.1c0.2,0.4,0.2,0.9,0.1,1.4
		c-0.1,0.5-1.3,2.8-1.5,4.7c-0.2,3.2,1.6,5.3,3.1,5.9c-0.3,0.5-0.4,1.1-0.2,1.5c0.2,0.3,0.5,0.6,1.1,0.6c-0.4,0.4-0.5,1-0.3,1.6
		c0.3,0.7,1.1,1.7,1.7,1.7c0,0.6,0.2,1.9,0.4,2.5c-0.2,0.4-0.5,0.8-0.4,1.6c0,0.8,0.6,1.5,1.3,1.7c0.2,0.4,0.3,0.9,0.5,1.1
		c0.2,0.3,0.4,0.6,1,0.9c0.5,0.3,1.1,0.6,1.8,0.6c0.7,0,1.3,0,1.6-0.1c0,0.2,0.1,2,0.2,4c-1.7,4.8-2.6,10.3-2.6,16.2v0
		c0,10.6,3,20.1,8.8,26.2c0,0,0.3,0.4,1.3,1c0,0,1.8-3.1,4.6-6.6c0.7-0.9,1.5-1.8,2.4-2.6c1.4-1.2,2.7-2.2,3.9-3.1
		c3.6-2.4,7.7-4.3,11.5-5.1c-4.4,2.3-6.8,3.5-10.9,7c-2.6,2.2-6.7,6.2-9.6,11.5c0.6,0.5,1.4,0.9,2.3,1c0.6-0.7,3.7-6.3,8.4-10.9
		c9.6-8.9,20.8-11,26.7-10.9c0.3-2.4,0.5-5,0.5-7.6c0-4.3-0.4-8.3-1.3-12.1l7-7.8C92.2,64.7,92.7,64.2,92.5,63.9"/>
	<path fill="#FFFFFF" d="M40.2,60.4c-0.4-0.2-1.5-0.8-2.4-0.7c-0.9,0-1.7,0.2-2.4,0.7c-0.3-0.2-0.4-0.6-0.2-1.1
		c0.2-0.5,0.5-0.5,0.5-0.5l-0.3-4.5c0,0,1.3-0.9,1.6-1c0.3-0.1,0.5-0.4,0.5-0.7c0.6,0.4,1.4,1.2,1.8,1.8c0.4,0.6,0.6,1.2,0.7,1.9
		c0,0.7,0,1.6-0.1,2.5c0.3,0.2,0.5,0.4,0.6,0.8C40.5,60,40.4,60.1,40.2,60.4"/>
	<path fill="#FFFFFF" d="M80.9,74.3c0-0.9-1.1-3.2-1.7-3.7l10.6-4.7L80.9,74.3z"/>
	<path fill="#FFFFFF" d="M51.8,56.7l9,8.1c-0.9,0.5-2.2,1.8-2.5,2.9L51.8,56.7z"/>
	<path fill="#FFFFFF" d="M57.1,72.8c-0.3,0.5-0.4,0.8-0.5,1.3c-0.1,0.6,0,0.9,0,1.4l-2.7-1.9c0-0.6-0.1-1.7-0.2-2.2
		c0-0.1,0-0.2,0-0.2L57.1,72.8z"/>
	<path fill="#FFFFFF" d="M41.9,73.6c-0.2-0.3-1-16.8-1-17.4l0.9-0.6v-0.2c-0.6,0-1.4-0.3-1.6-0.7L40,49.7c-0.9-0.1-1.8-0.4-2.1-0.7
		c-0.4-0.4-0.8-0.9-0.3-1.9c0.4,0.3,1.7,0.7,2.9,0.7c0.2,0,0.7,0.5,1,0.6c0.3,0.1,0.9,0.4,1.1,0.5c0.2,0.1,0.4,0.6,0.4,0.8
		c0.1,0.2,8.3,21.5,8.4,21.7c0.1,0.2,0.6,3.8,0.6,4.1c0,0.3,1.3,3.1,1.5,3.4c-1.1,0-2.9,0.6-4.3,2c-1.4,1.4-2.7,4.5-3,5.9
		C46.1,86.2,42.1,73.9,41.9,73.6"/>
	<path fill="#FFFFFF" d="M52.3,94c-0.4,3.3-1.1,6.1-2.3,8.1c-0.8,1.3-2.9,4-3.7,4.9c0.8-1.6,1.4-5.6,1.4-8.6c0-2-0.6-6.4-0.1-9.3
		c0.6-3.1,1.5-4.9,3.5-6.8c1.1-1,3.2-2.2,6.4-1.4l2.5,4.7c-1.3-0.3-3.1,0-4.3,0.9C53.5,88.3,52.7,90.6,52.3,94"/>
	<path fill="#FFFFFF" d="M52.6,100.4c0.6-1.4,1.4-5.3,1.6-6.6c0.3-1.7,0.6-4.1,2.6-5.8c1-0.8,2.6-0.9,3.3-0.7l2.8,5.8
		c0.3,0.6,1.1,0.8,1.7,0.8C61.9,94.7,55.2,97.9,52.6,100.4"/>
	<path fill="#FFFFFF" d="M76.8,81.9c-0.5,0.7-0.3,1.4,0,1.9c0.3,0.5,1.8,3.3,1.8,3.3c0.5,1.3,0.8,1.9,1.3,2.7c0.8,0,1.7,0,2.6,0
		c-1-2.2-3.3-6.5-3.3-6.5l-0.2-3.5C78.4,80.2,77.3,81.2,76.8,81.9"/>
	<path fill="#FFFFFF" d="M64.7,63.4c1.1-0.2,3.7,0,4.5,0.4l-2.6-14.6L64.7,63.4z"/>
	<path fill="#FFFFFF" d="M43,49.8c-0.1-0.2-0.2-0.7-0.4-0.8c-0.3-0.1-0.8-0.4-1.1-0.5c-0.3-0.1-0.8-0.6-1-0.6
		c-1.1,0-2.4-0.4-2.9-0.7c-0.5,0.9-0.1,1.4,0.3,1.9c0.3,0.3,1.3,0.6,2.1,0.7l0.2,5.1c0.2,0.4,1,0.6,1.6,0.6v0.2l-0.9,0.6
		c0,0.6,0.8,17.1,1,17.4c0.2,0.3,4.2,12.6,4.3,13.3c0.3-1.4,1.6-4.5,3-5.9c1.5-1.4,3.2-2.1,4.3-2c-0.2-0.3-1.5-3.1-1.5-3.4
		c0-0.3-0.5-3.8-0.6-4.1C51.3,71.3,43.1,50.1,43,49.8"/>
	<path fill="#FFFFFF" d="M37.8,45.8c2.3,0,3.4,1,4,1.5c0.1-0.8-0.1-1.5-0.8-2.1c-0.6-0.5-1.7-0.9-3.3-0.9c-1.1,0-2.2,0.3-2.9,0.9
		c-0.6,0.5-0.7,1.1-0.6,2C34.4,46.6,35.9,45.8,37.8,45.8"/>
	<path fill="#FFFFFF" d="M33.6,33.7c-0.1,0.9,0.2,1.8,0.6,2.4c0.2,0.3,0.8,0.9,1.2,0.9c0.6,0,1.1-1.1,2.5-1.1c0.9,0,1.5,1.3,2.2,1.3
		c0.6,0,0.9-0.5,1.5-0.6c0.5-0.1,0.7,0.2,1,0.5c0.2-0.5,0.5-0.8,1.3-1.4c0.9-0.7,4-1.3,5.4-2.5c0.7-0.6,0.8-1.7,0.6-2.4
		c-0.5,0.7-1.9,1.5-3.3,1.5c-0.7,0-2.3-0.3-2.9-0.6c0.3-0.5,0.4-1.1,0.1-1.6c-0.4,0.3-2.4,0.5-3.1,0.5c-0.7,0-2.2-0.3-3.3-0.2
		C34.9,30.5,33.7,32.2,33.6,33.7"/>
	<path fill="#FFFFFF" d="M37.9,41.4c5.4,0.1,7.8,2.6,7.9,4.6c0.3-0.6,0.2-1.2,0.2-1.9c0-0.5-0.8-2.1-0.9-2.6c0-0.5,0.1-0.9,0.2-1.3
		c-0.3,0.1-1.5,0.5-2,0.1c-0.5-0.4-0.2-1.5-0.9-1.8c-0.7-0.3-1.8,0.6-2.6,0.5c-0.7-0.1-1.3-1.1-2.1-1.1c-0.8,0-1.1,0.9-2,1.1
		c-0.7,0.2-1.6-0.3-2-0.2c-0.5,0-0.7,0.4-0.9,0.8c-0.2,0.4-0.4,0.6-0.9,0.8c-0.4,0.1-1.1-0.3-1.4-0.2c0.2,0.2,0.4,1.2,0.1,1.8
		c-0.3,0.7-0.9,1.5-0.9,2.4c-0.1,0.8,0.2,1.1,0.4,1.7C30,43.2,33.2,41.3,37.9,41.4"/>
	<path fill="#FFFFFF" d="M34.5,51.7c-0.4,0.1-1.2,0.7-1.5,1.3c0.1,0.4,0.6,1.4,1,1.6c0.1-0.4,0.6-1.2,0.8-1.4
		c0.3-0.2,0.7-0.4,0.9-0.5c0.3-0.1,0.4-0.3,0.4-0.6c0-0.3,0-0.5-0.2-0.8c0.3,0,0.8,0,0.9-0.2c0.2-0.2,0.3-0.5,0.3-0.8
		c0-0.3-0.1-0.4-0.4-0.4c-0.3,0-1.2-0.1-1.6,0c0,0,0.7-0.4,0.9-0.5c0.2-0.1,0.3-0.3,0.3-0.5c0-0.2,0-0.6-0.1-1c-1,0-2.8,0.9-3.3,1.4
		l0.4,0.9l-0.7,0c-0.1,0.5,0,1.2,0.2,1.6C33.4,51.7,34.1,51.7,34.5,51.7"/>
	<path fill="#FFFFFF" d="M78.5,73c-0.1-0.7-1.8-2.6-4.6-4.8c-2.2-1.7-5.4-3.3-8.1-3.3c-4.5,0-6.3,3.1-6.7,4.7c-0.2,1-0.2,2,0,2.6
		c-0.7,0.6-1,1.1-1.1,1.8c-0.1,0.5,0,1.2,0.5,1.7c0-0.7,0.4-1.4,0.8-1.9c0.4-0.6,1.1-0.8,1.7-1.2l0.1,1.2c-0.6,0.3-1.3,1-1.3,1.4
		l0,2l1.5-0.9l0.3,0.6l-0.6,3.6l0.9-0.2l1.6,0.6L62,82.3v0.5c0,0,0.2-0.3,0.8-0.3c0.5,0,1.9,0.6,1.9,0.6l-0.1,0.3H64h-2.1
		c-0.1,0.4,0.2,0.6,0.4,0.8c0.4-0.1,0.7-0.3,0.9-0.3c0.2,0,0.7,0.1,1.1,0.2l-0.5,0.7c0,0-0.3,0.2-0.7,0.1c-0.3-0.1-0.5,0.3-0.5,0.6
		c0,0.3,0.2,1.1,0.2,1.1c0.3,1.1,1.4,0.9,1.6,0.9c0.7-0.1,3.2-0.9,3.2-0.9l-2.3,3.3l1,3.5c1.5-0.6,6.1-2.3,11.1-3.1
		c-0.5-0.9-0.6-1.3-1.3-2.6l-2.6-5.9l0.4-0.9c0.6,0.2,1.4-0.2,2-0.7c0.6-0.5,1.2-1.3,1.5-1.8c-0.4-0.2-0.7-0.2-1,0.1
		c-0.3,0.2-0.5,0.6-1,0.4c-0.5-0.2-0.2-0.7-0.2-1.2c0.1-0.5-0.5-0.5-0.9-0.1c-0.4,0.4-1.3,0.2-1.8-0.4c-0.6-0.6-3.3-2.8-4.2-3.4
		c-1.4-0.8-3.3-1-4.6-0.8c-0.8,0.1-1.4,0.5-1.7,0.3l-1-1.6l0.2-0.1c0.4,0.2,0.7,0.4,1.2,0.3c0.5-0.2,1.9-0.5,3.3-0.5
		c2,0,4.5,0.7,5.6,1.2c0,1.3,2.7,3,3.9,3.2c1,0.1,1.6-0.1,2.2-0.5l-2.6-2.3l1.4-1.7c0,0,2.2,2.1,2.5,2.5
		C78.7,73.7,78.6,73.3,78.5,73 M62.9,75.7c0,0,1.1-0.6,2.2-0.9c1.6-0.3,3.3,0.6,4.5,1.6l-0.2,0.4l-1.8,0.4c-0.3-0.3-1-0.4-1.7-0.4
		c-0.6,0-1.1,0.3-1.1,0.3l0.3,0.6l-0.8,0.2c-0.4-0.5-0.9-1-1.4-1.2V75.7z M60.2,71.6c-0.5-1.5,0.8-3.1,1.3-3.6l0.9,2
		C61.7,70.3,60.7,71.1,60.2,71.6 M68.3,69.9c-0.8-0.6-3.5-0.5-4.6-0.2l-0.8-2.4c0.6-0.5,1.8-0.8,2.9-0.8c1.1,0,2.2,0.3,3.1,0.7
		L68.3,69.9z M73.6,72.3c-1.1-0.7-3.3-1.8-4-2l1-2.5c0.8,0.4,3.8,2.2,4.3,2.7L73.6,72.3z"/>
	<path fill="#FFFFFF" d="M73.2,65.6c1,0.4,3.1,2.2,3.7,2.6l5.4-11.5L73.2,65.6z"/>
	<path fill="#1A1446" d="M384.2,76.6c1.6,0,3.1,1.3,3.1,3.2c0,1.9-1.5,3.2-3.1,3.2c-1.6,0-3.1-1.3-3.1-3.2
		C381.1,77.9,382.6,76.6,384.2,76.6 M384.2,82.3c1.3,0,2.4-1,2.4-2.5c0-1.5-1.1-2.5-2.4-2.5c-1.3,0-2.4,1-2.4,2.5
		C381.9,81.3,382.9,82.3,384.2,82.3 M383,78.1h1.3c0.9,0,1.3,0.3,1.3,1c0,0.6-0.4,0.9-0.9,0.9l0.9,1.5H385l-0.9-1.5h-0.5v1.5H383
		V78.1z M383.7,79.6h0.6c0.4,0,0.7-0.1,0.7-0.5c0-0.4-0.4-0.5-0.7-0.5h-0.6V79.6z"/>
	<rect x="99.4" y="92.8" fill="#1A1446" width="108.5" height="1.1"/>
	<rect x="222.8" y="92.8" fill="#1A1446" width="156.5" height="1.1"/>
	<g>
		<path fill="#1A1446" d="M161.9,103.4h2.8v15.1h-2.8V103.4z"/>
		<path fill="#1A1446" d="M173.1,103.4h2.6l6.3,10.7h0v-10.7h2.6v15.1h-2.6l-6.3-10.7h0v10.7h-2.6V103.4z"/>
		<path fill="#1A1446" d="M193.6,114c1.1,1.6,2.7,2.3,4.6,2.3c1.4,0,3.2-0.5,3.2-1.9c0-1.2-1.1-1.5-3.1-2l-1.7-0.4
			c-2.4-0.6-4.5-1.4-4.5-4.2c0-3.2,3-4.7,5.8-4.7c2.6,0,4.7,1,6.3,3l-2.4,1.8c-0.7-1.4-2.1-2.2-4-2.2c-1.6,0-2.9,0.6-2.9,1.7
			c0,1.3,1.4,1.5,3.1,1.9l1.8,0.4c2.2,0.5,4.4,1.4,4.4,4.3c0,3.7-3.5,5-6.6,5c-2.5,0-5.1-1.1-6.5-3.2L193.6,114z"/>
		<path fill="#1A1446" d="M223.8,113.9c0,3.1-2.4,5-6.1,5c-3.6,0-6.1-2-6.1-5v-10.4h2.8v9.7c0,1.8,0.8,3,3.2,3c2.5,0,3.2-1.2,3.2-3
			v-9.7h2.8V113.9z"/>
		<path fill="#1A1446" d="M231.9,103.4h6.3c3.2,0,5.1,1.9,5.1,4.6c0,3.4-2.3,4.2-3,4.5l3.4,6.1h-3.3l-2.9-5.6h-2.7v5.6h-2.8V103.4z
			 M234.7,110.5h3.1c1.4,0,2.5-0.8,2.5-2.3c0-1.4-0.9-2.3-2.9-2.3h-2.7V110.5z"/>
		<path fill="#1A1446" d="M254.3,103.4h3.3l5,15.1h-3l-0.9-2.9h-5.7l-0.9,2.9h-3L254.3,103.4z M255.9,106.2L255.9,106.2l-2.1,6.9
			h4.2L255.9,106.2z"/>
		<path fill="#1A1446" d="M269,103.4h2.6l6.3,10.7h0v-10.7h2.6v15.1H278l-6.3-10.7h0v10.7H269V103.4z"/>
		<path fill="#1A1446" d="M298.4,108.5c-0.2-1.7-1.6-2.8-3.3-2.8c-3,0-4.3,2.7-4.3,5.3c0,2.6,1.3,5.3,4.3,5.3c2,0,3.1-1.3,3.6-3.1
			l2.6,1.2c-1.2,3-3.2,4.5-6.2,4.5c-4.8,0-7.2-3.7-7.2-7.9c0-4.3,2.7-7.9,7.2-7.9c3,0,5.3,1.6,6.1,4.7L298.4,108.5z"/>
		<path fill="#1A1446" d="M307.4,103.4h10.7v2.6h-7.8v3.4h7.2v2.5h-7.2v3.9h8.4v2.6h-11.2V103.4z"/>
	</g>
</g>
</svg>
